# Blender 3.1.0
# www.blender.org
mtllib Street_Curve.mtl
o Street_Curve.001
v -1.000000 0.100000 1.000000
v -1.000000 0.100000 -1.000000
v -1.000000 -0.100000 -1.000000
v -1.000000 -0.100000 1.000000
v -0.333333 -0.100000 1.000000
v -0.333333 0.100000 1.000000
v -1.000000 0.150000 1.000000
v -1.000000 0.150000 -1.000000
v 1.000000 0.100000 -1.000000
v 1.000000 -0.100000 -1.000000
v 1.000000 -0.100000 -0.333333
v 1.000000 -0.100000 0.333333
v 1.000000 -0.100000 1.000000
v 0.333333 -0.100000 1.000000
v 0.333333 0.100000 1.000000
v -0.333333 0.150000 1.000000
v -0.326445 0.150000 0.346392
v -0.307291 0.150000 0.250000
v -0.277244 0.150000 0.166667
v -0.250000 0.150000 0.111600
v -0.236466 0.150000 0.083333
v -0.191396 0.150000 0.000000
v -0.166667 0.150000 -0.030977
v -0.124865 0.150000 -0.083333
v -0.083333 0.150000 -0.128773
v -0.041163 0.150000 -0.166667
v 0.000000 0.150000 -0.199597
v 0.083333 0.150000 -0.250000
v 0.166667 0.150000 -0.287591
v 0.250000 0.150000 -0.311199
v 0.333333 0.150000 -0.326716
v 0.416667 0.150000 -0.333333
v 0.500000 0.150000 -0.333333
v 0.583333 0.150000 -0.333333
v 0.666667 0.150000 -0.333333
v 0.750000 0.150000 -0.333333
v 0.833333 0.150000 -0.333333
v 0.916667 0.150000 -0.333333
v 1.000000 0.150000 -0.333333
v 1.000000 0.150000 -1.000000
v 1.000000 0.100000 -0.333333
v 1.000000 0.100000 0.333333
v 1.000000 0.100000 0.030331
v 1.000000 0.100000 1.000000
v -0.030563 0.100000 0.999988
v -0.030563 0.100000 0.857131
v 0.030043 0.100000 0.857131
v 0.028045 0.100000 0.614392
v -0.032475 0.100000 0.611167
v -0.029779 0.100000 0.536101
v -0.015958 0.100000 0.448218
v 0.011649 0.100000 0.366854
v 0.047282 0.100000 0.304948
v 0.099808 0.100000 0.335182
v 0.257283 0.100000 0.154949
v 0.212950 0.100000 0.113625
v 0.275492 0.100000 0.066461
v 0.833333 0.100000 -0.333333
v 0.750000 0.100000 -0.333333
v 0.666667 0.100000 -0.333333
v 0.583333 0.100000 -0.333333
v 0.500000 0.100000 -0.333333
v 0.416667 0.100000 -0.333333
v 0.333333 0.100000 -0.326716
v 0.250000 0.100000 -0.311199
v 0.166667 0.100000 -0.287591
v 0.083333 0.100000 -0.250000
v 0.000000 0.100000 -0.199597
v -0.041163 0.100000 -0.166667
v -0.083333 0.100000 -0.128773
v -0.124865 0.100000 -0.083333
v -0.166667 0.100000 -0.030977
v -0.191396 0.100000 0.000000
v -0.236466 0.100000 0.083333
v -0.250000 0.100000 0.111600
v -0.277244 0.100000 0.166667
v -0.307291 0.100000 0.250000
v -0.326445 0.100000 0.346392
v 0.333333 0.100000 0.916667
v 0.333333 0.100000 0.833333
v 0.353735 0.100000 0.750000
v 0.377344 0.100000 0.666667
v 0.416667 0.100000 0.583333
v 0.467484 0.100000 0.500000
v 0.500000 0.100000 0.466579
v 0.583333 0.100000 0.416667
v 0.666667 0.100000 0.378586
v 0.750000 0.100000 0.357123
v 0.833333 0.100000 0.337808
v 0.916667 0.100000 0.333333
v 0.857160 0.100000 0.030717
v 0.856996 0.100000 -0.029888
v 0.999853 0.100000 -0.030275
v 0.916667 0.100000 -0.333333
v 0.342341 0.100000 0.033907
v 0.431198 0.100000 0.014259
v 0.502335 0.100000 0.007803
v 0.507812 0.100000 0.068161
v 0.436676 0.100000 0.074617
v 0.359153 0.100000 0.092134
v 0.299826 0.100000 0.121354
v 0.064175 0.100000 0.397088
v 0.040431 0.100000 0.470429
v 0.029751 0.100000 0.545559
v 0.030043 0.100000 0.999988
v 1.000000 0.150000 0.333333
v 1.000000 0.150000 1.000000
v 0.333333 0.150000 1.000000
v 0.333333 0.150000 0.916667
v 0.333333 0.150000 0.833333
v 0.353735 0.150000 0.750000
v 0.377344 0.150000 0.666667
v 0.416667 0.150000 0.583333
v 0.467484 0.150000 0.500000
v 0.500000 0.150000 0.466579
v 0.583333 0.150000 0.416667
v 0.666667 0.150000 0.378586
v 0.750000 0.150000 0.357123
v 0.833333 0.150000 0.337808
v 0.916667 0.150000 0.333333
v 0.999853 0.119999 -0.030275
v 0.856996 0.119999 -0.029888
v 0.857160 0.119999 0.030717
v 1.000017 0.119999 0.030331
v 0.502335 0.119999 0.007803
v 0.507812 0.119999 0.068161
v 0.431198 0.119999 0.014259
v 0.436676 0.119999 0.074617
v 0.342341 0.119999 0.033907
v 0.359153 0.119999 0.092134
v 0.275492 0.119999 0.066461
v 0.299826 0.119999 0.121354
v 0.212950 0.119999 0.113625
v 0.257283 0.119999 0.154949
v 0.047282 0.119999 0.304948
v 0.099808 0.119999 0.335182
v 0.011649 0.119999 0.366854
v 0.064175 0.119999 0.397088
v -0.015958 0.119999 0.448218
v 0.040431 0.119999 0.470429
v -0.029779 0.119999 0.536101
v 0.029751 0.119999 0.545559
v -0.032475 0.119999 0.611167
v 0.028045 0.119999 0.614392
v -0.030563 0.119999 0.857131
v 0.030043 0.119999 0.857131
v -0.030563 0.119999 0.999988
v 0.030043 0.119999 0.999988
vn -1.0000 -0.0000 -0.0000
vn -0.0000 -0.0000 -1.0000
vn -0.0000 -1.0000 -0.0000
vn 1.0000 -0.0000 -0.0000
vn 0.9999 -0.0000 0.0105
vn 0.9808 -0.0000 0.1949
vn -0.9407 -0.0000 -0.3392
vn -0.8963 -0.0000 -0.4434
vn -0.8991 -0.0000 -0.4377
vn -0.9019 -0.0000 -0.4318
vn -0.8796 -0.0000 -0.4757
vn -0.7815 -0.0000 -0.6239
vn -0.7381 -0.0000 -0.6747
vn -0.6684 -0.0000 -0.7438
vn -0.6247 -0.0000 -0.7809
vn -0.5175 -0.0000 -0.8557
vn -0.4112 -0.0000 -0.9115
vn -0.2726 -0.0000 -0.9621
vn -0.1831 -0.0000 -0.9831
vn -0.0792 -0.0000 -0.9969
vn 0.9713 -0.0000 0.2378
vn -0.9621 -0.0000 -0.2726
vn -0.9044 -0.0000 -0.4267
vn -0.8538 -0.0000 -0.5206
vn -0.7167 -0.0000 -0.6973
vn -0.5138 -0.0000 -0.8579
vn -0.4156 -0.0000 -0.9095
vn -0.2494 -0.0000 -0.9684
vn -0.2258 -0.0000 -0.9742
vn -0.0536 -0.0000 -0.9986
vn -0.0000 1.0000 -0.0000
vn -0.7085 0.4997 -0.4984
vn 0.4980 0.5001 -0.7085
vn 0.8028 0.4205 -0.4227
vn -0.0027 -0.0000 -1.0000
vn 0.9959 -0.0000 -0.0904
vn -0.0904 -0.0000 -0.9959
vn -0.2159 -0.0000 -0.9764
vn -0.2204 -0.0000 -0.9754
vn -0.4378 -0.0000 -0.8991
vn -0.4418 -0.0000 -0.8971
vn -0.6021 -0.0000 -0.7984
vn -0.6197 -0.0000 -0.7848
vn 0.6818 -0.0000 -0.7315
vn 0.4989 -0.0000 -0.8667
vn -0.8667 -0.0000 -0.4989
vn -0.9470 -0.0000 -0.3213
vn 0.9514 -0.0000 0.3080
vn 0.9879 -0.0000 0.1554
vn 0.9900 -0.0000 0.1407
vn 0.9994 -0.0000 0.0359
vn 0.9997 -0.0000 0.0248
vn 0.0532 -0.0000 -0.9986
vn 1.0000 -0.0004 -0.0026
vn 1.0000 -0.0000 -0.0027
s 1
usemtl Grey..001
f 1//1 2//1 3//1 4//1
f 5//2 4//2 1//2 6//2
f 1//1 7//1 8//1 2//1
f 2//2 9//2 10//2 3//2
f 3//3 10//3 11//3 12//3 13//3 14//3 5//3 4//3
f 1//2 7//2 16//2 6//2
f 8//3 40//3 39//3 38//3 37//3 36//3 35//3 34//3 33//3 32//3 31//3 30//3 29//3 28//3 27//3 26//3 25//3 24//3 23//3 22//3 21//3 20//3 19//3 18//3 17//3 16//3 7//3
f 2//2 8//2 40//2 9//2
f 9//4 41//4 11//4 10//4
f 42//4 44//4 13//4 12//4
f 44//2 13//2 14//2 15//2
f 78//5 17//5 16//5 6//5
f 78//6 77//6 18//6 17//6
f 77//7 18//7 19//7 76//7
f 76//8 19//8 20//9 75//9
f 75//9 20//9 21//10 74//10
f 74//11 21//11 22//11 73//11
f 73//12 22//12 23//12 72//12
f 72//12 23//12 24//12 71//12
f 71//13 24//13 25//13 70//13
f 70//14 25//14 26//14 69//14
f 69//15 26//15 27//15 68//15
f 68//16 27//16 28//16 67//16
f 67//17 28//17 29//17 66//17
f 66//18 29//18 30//18 65//18
f 65//19 30//19 31//19 64//19
f 64//20 31//20 32//20 63//20
f 63//2 32//2 33//2 62//2
f 62//2 33//2 34//2 61//2
f 61//2 34//2 35//2 60//2
f 60//2 35//2 36//2 59//2
f 59//2 36//2 37//2 58//2
f 58//2 37//2 38//2 94//2
f 94//2 38//2 39//2 41//2
f 41//4 9//4 40//4 39//4
f 44//4 42//4 106//4 107//4
f 15//2 108//2 107//2 44//2
f 79//4 109//4 108//4 15//4
f 80//4 110//4 109//4 79//4
f 81//21 111//21 110//21 80//21
f 82//22 81//22 111//22 112//22
f 83//23 82//23 112//23 113//23
f 84//24 83//24 113//24 114//24
f 85//25 84//25 114//25 115//25
f 86//26 85//26 115//26 116//26
f 87//27 86//27 116//27 117//27
f 88//28 87//28 117//28 118//28
f 89//29 88//29 118//29 119//29
f 90//30 89//30 119//30 120//30
f 42//2 90//2 120//2 106//2
f 120//3 106//3 107//3 108//3 109//3 110//3 111//3 112//3 113//3 114//3 115//3 116//3 117//3 118//3 119//3
usemtl Black.003
f 15//2 14//2 5//2 6//2
f 6//31 45//31 46//31 47//31 48//31 49//31 50//31 51//31 52//31 53//31 54//31 55//31 56//31 57//31 58//31 59//31 60//31 61//31 62//31 63//31 64//31 65//31 66//31 67//31 68//31 69//31 70//31 71//31 72//31 73//31 74//31 75//31 76//31 77//31 78//31
f 43//32 93//31 92//33 91//34
f 15//31 79//31 80//31 81//31 82//31 83//31 84//31 85//31 86//31 87//31 88//31 89//31 90//31 42//31 43//31 41//31 94//31 58//31 57//31 95//31 96//31 97//31 98//31 99//31 100//31 101//31 55//31 54//31 102//31 103//31 104//31 48//31 47//31 105//31 45//31 6//31
f 41//4 43//4 11//4
f 42//4 12//4 11//4 43//4
usemtl White.002
f 43//32 91//34 123//35 124//35
f 97//36 125//36 126//36 98//36
f 96//37 127//37 125//37 97//37
f 125//3 126//3 128//3 127//3
f 98//37 99//37 128//37 126//37
f 95//38 129//38 127//38 96//38
f 127//3 128//3 130//3 129//3
f 99//39 100//39 130//39 128//39
f 57//40 131//40 129//40 95//40
f 129//3 130//3 132//3 131//3
f 100//41 101//41 132//41 130//41
f 56//42 133//42 131//42 57//42
f 131//3 132//3 134//3 133//3
f 101//43 55//43 134//43 132//43
f 55//44 56//44 133//44 134//44
f 53//45 135//45 136//45 54//45
f 52//46 137//46 135//46 53//46
f 135//3 136//3 138//3 137//3
f 54//46 102//46 138//46 136//46
f 51//47 139//47 137//47 52//47
f 137//3 138//3 140//3 139//3
f 102//48 138//48 140//48 103//48
f 50//49 51//49 139//49 141//49
f 139//3 140//3 142//3 141//3
f 103//50 140//50 142//50 104//50
f 49//51 50//51 141//51 143//51
f 141//3 142//3 144//3 143//3
f 104//52 142//52 144//52 48//52
f 48//53 49//53 143//53 144//53
f 46//2 145//2 146//2 47//2
f 45//4 46//4 145//4 147//4
f 145//3 146//3 148//3 147//3
f 47//4 146//4 148//4 105//4
f 105//2 45//2 147//2 148//2
f 121//3 124//3 123//3 122//3
f 93//54 121//54 124//54 43//54
f 92//35 122//35 121//35 93//35
f 91//34 92//33 122//55 123//55
